<svg width="876" height="440" viewBox="0 0 876 440" fill="none" xmlns="http://www.w3.org/2000/svg">
<g clip-path="url(#clip0_2_564)">
<g opacity="0.05">
<path fill-rule="evenodd" clip-rule="evenodd" d="M729.329 147.805L582.672 98.8101V-0.234375L876 -0.234349V98.8101L729.329 147.805ZM874.001 97.3659V1.76936L584.671 1.76934V97.3659L729.329 145.692L874.001 97.3659Z" fill="#191919"/>
<path fill-rule="evenodd" clip-rule="evenodd" d="M583.671 293.786L437 244.791V145.747H730.329V244.791L583.671 293.786ZM583.671 291.673L728.329 243.347V147.751H439V243.347L583.671 291.673Z" fill="#191919"/>
<path fill-rule="evenodd" clip-rule="evenodd" d="M437 147.75V-0.234375L584.671 -0.234362V147.75H437ZM439 145.747H582.672V1.76936L439 1.76934V145.747Z" fill="#191919"/>
<path fill-rule="evenodd" clip-rule="evenodd" d="M582.658 147.75V-0.234375L730.329 -0.234362V147.75H582.658ZM584.658 145.747H728.329V1.76936L584.658 1.76934V145.747Z" fill="#191919"/>
<path fill-rule="evenodd" clip-rule="evenodd" d="M438 147.805L291.329 98.8101V-0.234375L584.671 -0.234349V98.8101L438 147.805ZM582.671 97.3659V1.76936L293.328 1.76934V97.3659L438 145.692L582.671 97.3659Z" fill="#191919"/>
<path fill-rule="evenodd" clip-rule="evenodd" d="M438 439.766L291.329 390.772V291.727H584.671V390.772L438 439.766ZM582.671 389.328V293.731H293.328V389.328L438 437.654L582.671 389.328Z" fill="#191919"/>
<path fill-rule="evenodd" clip-rule="evenodd" d="M291.329 293.731V145.746H439V293.731H291.329ZM293.328 291.727H437V147.75H293.328V291.727Z" fill="#191919"/>
<path fill-rule="evenodd" clip-rule="evenodd" d="M436.987 293.731V145.747H584.658V293.731H436.987ZM438.986 291.727H582.658V147.75H438.986V291.727Z" fill="#191919"/>
<path fill-rule="evenodd" clip-rule="evenodd" d="M292.329 293.786L145.658 244.791V145.747H439V244.791L292.329 293.786ZM437 243.347V147.751H147.657V243.347L292.329 291.673L437 243.347Z" fill="#191919"/>
<path fill-rule="evenodd" clip-rule="evenodd" d="M145.658 147.75V-0.234375L293.329 -0.234362V147.75H145.658ZM147.657 145.747H291.329V1.76936L147.657 1.76934V145.747Z" fill="#191919"/>
<path fill-rule="evenodd" clip-rule="evenodd" d="M291.329 147.75V-0.234619L439 -0.234606V147.75H291.329ZM293.328 145.747H437V1.76911L293.328 1.76909V145.747Z" fill="#191919"/>
<path fill-rule="evenodd" clip-rule="evenodd" d="M146.657 147.805L9.15527e-05 98.8101L0.000100212 -0.234375L293.329 -0.234349L293.328 98.8101L146.657 147.805ZM291.329 97.3659V1.76936L1.99957 1.76934L1.99956 97.3659L146.658 145.692L291.329 97.3659Z" fill="#191919"/>
</g>
</g>
<defs>
<clipPath id="clip0_2_564">
<rect width="876" height="440" fill="white" transform="translate(0 -0.234375)"/>
</clipPath>
</defs>
</svg>
